<svg xmlns="http://www.w3.org/2000/svg" xmlns:xlink="http://www.w3.org/1999/xlink" version="1.1" x="0px" y="0px" viewBox="0 0 100 125" enable-background="new 0 0 100 100" xml:space="preserve"><g><rect x="40.945" y="33.555" fill="#000000" width="2.087" height="29.37"/><rect x="37.679" y="33.555" fill="#000000" width="2.087" height="29.37"/><rect x="60.541" y="33.555" fill="#000000" width="2.088" height="29.37"/><rect x="57.275" y="33.555" fill="#000000" width="2.088" height="29.37"/><g><ellipse fill="#000000" cx="33.2" cy="67.238" rx="1.168" ry="1.065"/><ellipse fill="#000000" cx="67.395" cy="67.238" rx="1.168" ry="1.065"/></g><g><path fill="#000000" d="M56.096,61.582V33.555h-2.087v25.551C54.889,59.75,55.607,60.597,56.096,61.582z"/><path fill="#000000" d="M91.752,38.503c-1.916-3.376-9.184-2.59-12.327-3.965c-1.162-0.509-2.028-1.609-2.659-2.793    c0.773,0.481,1.682,0.764,2.659,0.764c2.785,0,5.043-2.258,5.043-5.043c0-2.785-2.258-5.043-5.043-5.043    c-2.291,0-4.222,1.53-4.837,3.623c-1.231-2.384-3.856-7.117-6.164-8.992c-3.143-2.554-14.931-1.768-18.86-1.768    c-3.929,0-16.894,0-19.056,1.768c-2.161,1.768-5.172,10.412-5.172,10.412c0-2.785-2.258-5.043-5.043-5.043    c-2.785,0-5.043,2.258-5.043,5.043c0,2.785,2.258,5.043,5.043,5.043c0.506,0,0.995-0.077,1.456-0.216    c-0.956,1.115-1.963,2.127-2.831,2.638c-3.668,2.161-7.661,0.197-10.609,3.34c-4.36,4.65-3.34,36.933-3.34,36.933    s0.616,0.007,1.728,0.021c0,6.363,2.79,9.605,9.666,9.605c7.76,0,10.525-3.045,10.525-9.104h46.689    c0,5.765,3.39,9.104,10.493,9.104c5.634,0,9.739-3.045,9.739-9.406c0.869-0.062,1.344-0.135,1.33-0.22    C94.944,74.024,96.071,46.116,91.752,38.503z M16.364,53.92c-3.328,0-6.025-2.697-6.025-6.024c0-3.327,2.697-6.025,6.025-6.025    c3.327,0,6.024,2.698,6.024,6.025C22.389,51.223,19.691,53.92,16.364,53.92z M33.2,71.311c-2.303,0-4.176-1.827-4.176-4.073    s1.873-4.072,4.176-4.072s4.176,1.827,4.176,4.072S35.502,71.311,33.2,71.311z M50.005,71.398c-3.751,0-6.803-3.052-6.803-6.803    c0-0.166,0.013-0.328,0.025-0.491H36.5v-0.001v-1.178v-29.37v-1.179c0,0,6.776-2.259,13.505-2.259    c6.729,0,13.801,2.259,13.801,2.259v1.179v29.37h0.105v1.179h-7.128c0.012,0.163,0.025,0.325,0.025,0.491    C56.809,68.346,53.757,71.398,50.005,71.398z M67.395,71.311c-2.303,0-4.176-1.827-4.176-4.073s1.873-4.072,4.176-4.072    s4.176,1.827,4.176,4.072S69.698,71.311,67.395,71.311z M49.269,25.992c-8.546,0-21.806,1.866-21.806,1.866    s2.158-8.617,6.384-10.216c1.986-0.751,26.03-0.982,30.591-0.441c5.559,0.66,8.602,10.657,8.602,10.657    S57.815,25.992,49.269,25.992z M83.681,53.92c-3.328,0-6.025-2.697-6.025-6.024c0-3.327,2.697-6.025,6.025-6.025    c3.328,0,6.025,2.698,6.025,6.025C89.706,51.223,87.008,53.92,83.681,53.92z"/><path fill="#000000" d="M49.564,57.813V33.555h-2.087v24.728C48.129,58.021,48.831,57.861,49.564,57.813z"/><path fill="#000000" d="M52.83,58.413V33.555h-2.088v24.278C51.481,57.913,52.182,58.115,52.83,58.413z"/><path fill="#000000" d="M50.005,60.799c-2.093,0-3.795,1.703-3.795,3.796c0,2.093,1.703,3.795,3.795,3.795    c2.093,0,3.796-1.703,3.796-3.795C53.801,62.501,52.098,60.799,50.005,60.799z"/><path fill="#000000" d="M46.298,58.897V33.555H44.21v27.493C44.74,60.186,45.452,59.45,46.298,58.897z"/></g></g><text x="0" y="115" fill="#000000" font-size="5px" font-weight="bold" font-family="'Helvetica Neue', Helvetica, Arial-Unicode, Arial, Sans-serif">Created by Ale Estrada</text><text x="0" y="120" fill="#000000" font-size="5px" font-weight="bold" font-family="'Helvetica Neue', Helvetica, Arial-Unicode, Arial, Sans-serif">from the Noun Project</text></svg>