<svg xmlns="http://www.w3.org/2000/svg" xmlns:xlink="http://www.w3.org/1999/xlink" version="1.1" x="0px" y="0px" viewBox="0 0 100 125" enable-background="new 0 0 100 100" xml:space="preserve"><g><path fill-rule="evenodd" clip-rule="evenodd" d="M99,40L85,85.5C84,88,83.435,89,81.5,89h-63c-1.933,0-2.5-1-3.5-3.5L1,40l0,0   c0-1.449,0.882-2.693,2.138-3.225C3.557,36.598,4.017,36.5,4.5,36.5H43V19c0-3.866,3.134-7,7-7c3.865,0,7,3.134,7,7v17.5h38.5   c0.485,0,0.943,0.098,1.36,0.275C98.118,37.307,99,38.551,99,40L99,40z M53.5,68h9.691l1.617-10.5H53.5V68z M62.653,71.5H53.5V82   h7.538L62.653,71.5z M26.038,43.5H9.077L12.309,54h15.345L26.038,43.5z M28.191,57.5H13.385l3.23,10.5h13.193L28.191,57.5z    M17.691,71.5L20.923,82h11.039l-1.615-10.5H17.691z M46.5,43.5H33.038L34.653,54H46.5V43.5z M46.5,57.5H35.191L36.809,68H46.5   V57.5z M37.347,71.5L38.962,82H46.5V71.5H37.347z M53.5,43.5V54h11.847l1.615-10.5H53.5z M68.038,82h11.038l3.23-10.5H69.653   L68.038,82z M70.191,68h13.195l3.227-10.5H71.809L70.191,68z M73.962,43.5L72.347,54h15.347l3.23-10.5H73.962z"/></g><text x="0" y="115" fill="#000000" font-size="5px" font-weight="bold" font-family="'Helvetica Neue', Helvetica, Arial-Unicode, Arial, Sans-serif">Created by Michael Anthony</text><text x="0" y="120" fill="#000000" font-size="5px" font-weight="bold" font-family="'Helvetica Neue', Helvetica, Arial-Unicode, Arial, Sans-serif">from the Noun Project</text></svg>