<svg xmlns="http://www.w3.org/2000/svg" xmlns:xlink="http://www.w3.org/1999/xlink" version="1.1" x="0px" y="0px" viewBox="0 0 100 125" style="enable-background:new 0 0 100 100;" xml:space="preserve"><style type="text/css">
	.st0{fill:#0C000C;}
</style><path class="st0" d="M43.6,64l-5.9,0.3l7.6,1l0.1-0.1C44.7,65.1,44.1,64.6,43.6,64z"/><path class="st0" d="M19.1,63l4,0.1c-0.2-0.1-0.5-0.3-0.7-0.5L19.1,63z"/><path class="st0" d="M25,58.3c0-1.8-0.6-3.3-1.3-3.3c-0.6,0-1.1,1-1.2,2.4c0,0.3,0,0.5,0,0.8v0.1  c0,1.8,0.6,3.3,1.3,3.3C24.4,61.6,25,60.1,25,58.3z M23.7,59.5c-0.3,0-0.5-0.5-0.5-1.2c0-0.6,0.2-1.2,0.5-1.2s0.5,0.5,0.5,1.2  S24,59.5,23.7,59.5z"/><path class="st0" d="M46,62.2c1.6,0,2.9-3.1,2.9-6.8s-1.3-6.8-2.9-6.8c-1.6,0-2.9,3.1-2.9,6.8S44.4,62.2,46,62.2z   M45.9,52.4c0.7,0,1.3,1.3,1.3,3c0,1.6-0.6,3-1.3,3s-1.3-1.3-1.3-3C44.7,53.8,45.2,52.4,45.9,52.4z"/><path class="st0" d="M76.3,36.8v-0.2c0,0-0.1-0.6-0.8-1.1c0.3,0.5,0.4,0.9,0.5,1.3C76.1,36.8,76.2,36.8,76.3,36.8z"/><path class="st0" d="M93.9,55.7l-4.1-0.2v1.1c0,0.5-0.3,0.8-0.6,0.8s-0.6-0.4-0.6-0.8v-1.2l-16.1-0.9v1.9  c0,0.6-0.3,1.1-0.8,1.1c-0.4,0-0.8-0.5-0.8-1.1v-1.9l-16.1-0.9c-0.5,0-0.8-0.4-0.8-0.9s0.4-0.8,0.9-0.8l16,0.9v-1.4  c0-0.6,0.3-1.1,0.8-1.1c0.4,0,0.8,0.5,0.8,1.1v1.5l16.1,0.9v-1c0-0.5,0.3-0.8,0.6-0.8s0.6,0.4,0.6,0.8v1.1L94,54c0.1,0,0.1,0,0.2,0  c-0.2-0.1-0.4-0.2-0.8-0.3h-2.7c0,0-1.2-10.1-5.2-10.5c0,0-7.1,0.8-7.7,1.4l-1.5-7.3c-0.1,0-0.2,0-0.3,0l3.4,15.9h-1l-3.1-15.9  c0,0,0,0,0-0.1c-2-0.1-6.2-0.1-12.4,1.3v-0.7c0,0,6.7-1.9,12.2-1.2c-0.3-1.1-0.7-1.5-0.9-1.7c-0.9-0.2-2.1-0.3-3.9,0l-11.6,1.8  c0,0-4.5-1.5-7.5,0c0,0-7.6-1.6-12.3-1.8c0,0-0.6,0.2-1.4,0.7L23.8,36l11.7,1c-0.3,0.3-0.7,0.6-1.1,0.9l-7.3,0.4l6.2,0.8  c-1.1,1.2-2.1,2.7-2.9,4.6c0,0-3.5,1.8-5.9,5l-9.9,0.4l9.1,0.8c-0.2,0.3-0.4,0.7-0.5,1.1c0,0-0.1,0-0.4,0.1l-11.5,0.5l9.4,0.8  c-0.2,0.2-0.4,0.4-0.6,0.6L5.4,53.3l13.8,1.3c-0.4,0.8-0.8,1.8-1,3.1l-4.1,0.2l4,0.5c0,0.5,0,1,0,1.6h3.1c-0.1-0.4-0.1-0.8-0.1-1.2  c0-0.1,0-0.2,0-0.3c0-0.4,0-0.7,0.1-1c0.2-2.1,1.2-3.6,2.4-3.6c1.4,0,2.5,2.1,2.5,4.7c0,1.6-0.4,3-1.1,3.8c-0.3,0.4-0.6,0.7-1,0.8  h-0.1c0.1,0,0.2,0,0.3,0.1h2.6c0.1,0,0.1,0,0.2,0c1-0.3,1.9-2.4,1.9-2.4h13c-0.5-1.5-0.7-3.4-0.7-5.4c0-5.4,2-9.8,4.4-9.8  s4.4,4.4,4.4,9.8c0,5.3-1.9,9.7-4.3,9.8c0.1,0,0.2,0,0.3,0h5.7c0,0,1.5-0.8,2.6-4.4h22.9c0,0,0.3,0.7,1,1.5l-6.1,0.3l7.6,1l0.1-0.1  c0.8,0.4,1.8,0.7,3.1,0.6c0,0,3.5-0.2,5.1-5.6l2.4-0.1c0,0,1.2-0.6,1.6-1.9h2l0.5-0.8c0,0,0.1-0.1,0.1-0.4  C94.5,55.6,94.2,55.7,93.9,55.7z M85.4,44.6c0.5-0.2,1.2,0.1,1.5,0.8s0.2,1.4-0.4,1.7C86,47.3,85.3,47,85,46.3S84.9,44.8,85.4,44.6z   M82.9,46.5c0.4-0.2,0.8,0.1,1.1,0.6c0.2,0.5,0.1,1-0.3,1.2s-0.8-0.1-1.1-0.6C82.5,47.2,82.6,46.7,82.9,46.5z M77.5,51.6  c0,0-2.5-0.4-4.4,0.4L73,51.3c0,0,1.8-0.8,4.5-0.4V51.6z M77.2,49.9c0,0-2.8-0.4-5.1,0.4L72,49.7c0,0,2-0.8,5.2-0.5V49.9z   M76.8,48.3c0,0-3.2-0.3-5.7,0.5L71,48.1c0,0,2.3-0.9,5.8-0.5V48.3z M76.5,46.7c0,0-3.6-0.3-6.4,0.6L70,46.6c0,0,2.5-0.9,6.5-0.6  V46.7z M76.2,45.1c0,0-3.9-0.3-7,0.7L68.9,45c0,0,2.7-0.9,7.1-0.7L76.2,45.1z M75.8,43.4c0,0-4.3-0.2-7.6,0.7l-0.3-0.7  c0,0,3-1,7.8-0.8L75.8,43.4z M75.4,41.1l0.1,0.7c0,0-4.7-0.2-8.3,0.8l-0.3-0.7C66.9,41.9,70.1,40.9,75.4,41.1z M75.2,40.2  c0,0-5.1-0.1-8.9,0.9L66,40.4c0,0,3.4-1,9.1-0.9L75.2,40.2z M74.6,38l0.2,0.7c0,0-5.7-0.1-9.9,1L64.6,39C64.6,39,69.8,37.9,74.6,38z   M60.2,41.9c0.5-0.2,1.2,0.1,1.5,0.8s0.2,1.4-0.4,1.7c-0.5,0.2-1.2-0.1-1.5-0.8S59.7,42.2,60.2,41.9z M56.1,38.3  c0.7-0.3,1.7,0.2,2.2,1.1c0.5,1,0.2,2-0.5,2.4c-0.7,0.3-1.7-0.2-2.2-1.1C55.1,39.7,55.3,38.6,56.1,38.3z M50.4,37.1  c-1.6,0.2-4.1,1.3-5.9,2.2c-1.9,0.9-2.8-0.5-2.8-0.5l-1.3-2.7C43.7,35.7,50.4,37.1,50.4,37.1z M39.4,36.4l1.7,3.5  c0,0,0.2,0.3-1.1,0.7c-1.4,0.4-6.5,2.2-8.1,3.1C31.8,43.8,34.4,38.1,39.4,36.4z M43.5,40.4l-1,1.1c0,0-8,2.6-10.6,3.5  C31.8,45,38.4,41.7,43.5,40.4z M53.2,39.1c0,0-8.1-0.3-12.4,6.5c-4.3,6.9-5.2,8.8-10.2,11.5c0,0,0.4-5.3-4.1-6.8c0,0,4.5,0,5.5,5.3  c0,0,3.5-1.9,8.2-10.5c1.8-3.3,5.7-7.7,12.9-7.7v1.7H53.2z"/><text x="0" y="115" fill="#000000" font-size="5px" font-weight="bold" font-family="'Helvetica Neue', Helvetica, Arial-Unicode, Arial, Sans-serif">Created by Luke Merlini</text><text x="0" y="120" fill="#000000" font-size="5px" font-weight="bold" font-family="'Helvetica Neue', Helvetica, Arial-Unicode, Arial, Sans-serif">from the Noun Project</text></svg>