<svg xmlns="http://www.w3.org/2000/svg" viewBox="0 0 68 62.5" x="0px" y="0px"><g fill="#000000" fill-rule="evenodd"><path d="M4 39C4 35.1340068 7.13400675 32 11 32 14.8659932 32 18 35.1340068 18 39 18 42.8659932 14.8659932 46 11 46 7.13400675 46 4 42.8659932 4 39zM22 39C22 32.9248678 17.0751322 28 11 28 4.92486775 28 0 32.9248678 0 39 0 45.0751322 4.92486775 50 11 50 17.0751322 50 22 45.0751322 22 39zM50 39C50 35.1340068 53.1340068 32 57 32 60.8659932 32 64 35.1340068 64 39 64 42.8659932 60.8659932 46 57 46 53.1340068 46 50 42.8659932 50 39zM68 39C68 32.9248678 63.0751322 28 57 28 50.9248678 28 46 32.9248678 46 39 46 45.0751322 50.9248678 50 57 50 63.0751322 50 68 45.0751322 68 39z"/><path d="M25.7387246,7 L27,7 C27.6295146,7 28.2222912,7.29638831 28.6,7.8 L34,15 L46,15 L50.4635574,9.7196312 C50.8435451,9.26364602 51.4064403,9 52,9 L66,9 C67.1045695,9 68,9.8954305 68,11 L68,24 C68,25.1045695 67.1045695,26 66,26 L52.5500031,26 L45.6607923,30.3205001 L42.8973666,38.6324555 C42.6251385,39.4491398 41.8608608,40 41,40 L27,40 C26.1391392,40 25.3748615,39.4491398 25.1026334,38.6324555 L22.3548238,30.2832748 L16.3479004,26 L6.446185,26 L2.89442719,27.7888544 C1.56462501,28.4537555 0,27.486764 0,26 L0,16 C0,14.8954305 0.8954305,14 2,14 L7.19999695,14 L13.5857864,7.58578644 C13.9608592,7.21071368 14.469567,7 15,7 L21.263932,7 L24.2111456,1.10557281 C24.5499296,0.428004752 25.2424559,1.9743356e-16 26,1.9743356e-16 L34.0024554,0 C34.5536886,-1.35998187e-17 35,0.451909848 35,1.0093689 L35,2.9906311 C35,3.55664682 34.5530813,4 34.0017792,4 L27.2429315,4 L25.7387246,7 L25.7387246,7 Z"/></g><text x="0" y="65" fill="#000000" font-size="5px" font-weight="bold" font-family="'Helvetica Neue', Helvetica, Arial-Unicode, Arial, Sans-serif">Created by Andrejs Kirma</text><text x="0" y="70" fill="#000000" font-size="5px" font-weight="bold" font-family="'Helvetica Neue', Helvetica, Arial-Unicode, Arial, Sans-serif">from the Noun Project</text></svg>