<svg xmlns="http://www.w3.org/2000/svg" viewBox="0 0 68 50" x="0px" y="0px"><g fill="#000000" fill-rule="evenodd" transform="matrix(-1 0 0 1 68 0)"><path d="M62 33C62 29.1340068 58.8659932 26 55 26 51.1340068 26 48 29.1340068 48 33 48 36.8659932 51.1340068 40 55 40 58.8659932 40 62 36.8659932 62 33zM52 33C52 31.3431458 53.3431458 30 55 30 56.6568542 30 58 31.3431458 58 33 58 34.6568542 56.6568542 36 55 36 53.3431458 36 52 34.6568542 52 33zM20 33C20 29.1340068 16.8659932 26 13 26 9.13400675 26 6 29.1340068 6 33 6 36.8659932 9.13400675 40 13 40 16.8659932 40 20 36.8659932 20 33zM10 33C10 31.3431458 11.3431458 30 13 30 14.6568542 30 16 31.3431458 16 33 16 34.6568542 14.6568542 36 13 36 11.3431458 36 10 34.6568542 10 33z"/><path d="M5,0 L36,0 C36.9953008,0 37.8391422,0.731859811 37.979899,1.71715729 L39.4147988,11.7614557 C39.5859167,12.959281 40.7864161,14 41.9993692,14 L59,14 C59.4103442,14 59.8107576,14.1262192 60.1469247,14.3615362 C60.5382764,14.6354824 61.0617791,15.011249 61.7478662,15.5098877 C62.2266893,15.8581106 62.7353796,16.2306969 63.2415528,16.6032134 C63.5452276,16.8267018 63.7808304,17.0006875 63.8725507,17.0694744 C66.2158349,18.7097733 68,22.1394918 68,25.0023695 L68,31 C68,32.1045695 67.1045695,33 66,33 L64,33 C64,28.0294373 59.9705627,24 55,24 C50.0294373,24 46,28.0294373 46,33 L22,33 C22,28.0294373 17.9705627,24 13,24 C8.02943725,24 4,28.0294373 4,33 L2,33 C0.8954305,33 0,32.1045695 0,31 L0,21 C0,20.8955454 0.00818305726,20.7912513 0.0244740693,20.6880749 L2.66387379,3.97187659 C1.71934384,3.81203463 1,2.9900232 1,2 C1,0.8954305 1.8954305,0 3,0 L5,0 L5,0 Z"/><path d="M51.0000121,4.00001619 C49.2982885,1.73105128 45.8375204,0 42.9999745,0 L36,0 C34.8954305,0 34,0.8954305 34,2 C34,3.1045695 34.8954305,4 36,4 L42.9999745,4 C44.5782625,4 46.8535689,5.13809186 47.8000121,6.40001619 L54.4,15.2 C54.5360435,15.3813913 54.7019412,15.5383283 54.8905996,15.6641006 L57.8905996,17.6641006 C58.809657,18.2768055 60.0513957,18.0284578 60.6641006,17.1094004 C61.2768055,16.190343 61.0284578,14.9486043 60.1094004,14.3358994 L57.3995803,12.5293527 L51.0000121,4.00001619 Z"/></g><text x="0" y="55" fill="#000000" font-size="5px" font-weight="bold" font-family="'Helvetica Neue', Helvetica, Arial-Unicode, Arial, Sans-serif">Created by Andrejs Kirma</text><text x="0" y="60" fill="#000000" font-size="5px" font-weight="bold" font-family="'Helvetica Neue', Helvetica, Arial-Unicode, Arial, Sans-serif">from the Noun Project</text></svg>