<svg xmlns="http://www.w3.org/2000/svg" xmlns:xlink="http://www.w3.org/1999/xlink" version="1.1" x="0px" y="0px" viewBox="0 0 100 125" enable-background="new 0 0 100 100" xml:space="preserve"><path d="M14.233,54.942c2.632,0,4.766,2.134,4.766,4.766c0,2.633-2.133,4.766-4.766,4.766c-2.632,0-4.766-2.133-4.766-4.766  C9.467,57.076,11.601,54.942,14.233,54.942 M14.233,52.344c-4.061,0-7.365,3.304-7.365,7.364c0,4.062,3.304,7.365,7.365,7.365  c4.062,0,7.365-3.304,7.365-7.365C21.598,55.647,18.294,52.344,14.233,52.344L14.233,52.344z"/><path d="M80.801,54.942c2.632,0,4.766,2.134,4.766,4.766c0,2.633-2.134,4.766-4.766,4.766s-4.766-2.133-4.766-4.766  C76.035,57.076,78.169,54.942,80.801,54.942 M80.801,52.344c-4.061,0-7.364,3.304-7.364,7.364c0,4.062,3.304,7.365,7.364,7.365  c4.062,0,7.365-3.304,7.365-7.365C88.166,55.647,84.862,52.344,80.801,52.344L80.801,52.344z"/><path d="M92.08,49.072c-1.098-1.704-3.207-4.419-4.304-5.055c-1.098-0.635-2.484,0.289-2.484,0.289  c-2.138-4.102-3.351-7.741-6.065-9.242c-2.715-1.502-11.438-2.138-16.348-2.138s-12.073,0.462-15.712,0.924  c-3.639,0.462-5.141,1.213-6.008,2.138c-0.866,0.924-3.523,7.336-3.523,7.336c-2.426,0.289-19.958,0.591-24.55,0.606  c-0.942,0.003-1.819,1.343-1.819,1.343c-0.488-0.173-0.953-0.26-1.799-0.26c-0.845,0-1.581,0.953-1.581,2.123  c0,1.169,1.04,1.949,1.04,1.949c-4.505,1.517-3.899,5.856-3.899,5.856c0.221,0.119,0.786,0.345,1.591,0.636  c1.47-2.699,4.332-4.534,7.615-4.534c4.778,0,8.665,3.887,8.665,8.664c0,0.091-0.002,0.181-0.005,0.271  c0.214,0.017,0.412,0.025,0.59,0.025c3.942,0,43.193,0.434,47.136,0.434c0.441,0,0.963-0.009,1.546-0.025  c-0.019-0.232-0.028-0.467-0.028-0.704c0-4.777,3.887-8.664,8.664-8.664c4.778,0,8.665,3.887,8.665,8.664  c4.444-0.018,5.187-1.181,5.502-3.617C95.285,53.636,93.177,50.776,92.08,49.072z M53.377,40.942c0,1.444-0.029,3.538-0.404,3.855  c-0.376,0.318-0.254,0.173-7.163,0.173c-5.571,0-5.589-0.375-5.878-0.693c-0.289-0.318-0.267-1.646,0.491-3.444  s1.104-2.932,3.033-3.185c1.361-0.178,8.761-0.562,9.379-0.238C53.701,37.866,53.377,39.498,53.377,40.942z M69.623,45.123  c-0.347,0.606-4.527,0.282-7.625,0.217c-3.098-0.065-5.091,0.145-5.719-0.336c-0.572-0.437-0.479-2.819-0.479-3.758  s0.227-3.015,0.695-3.466c0.455-0.438,1.133-0.65,5.343-0.26c1.992,0.185,4.217,0.722,5.17,1.502s1.3,1.791,1.82,2.888  C69.349,43.007,69.97,44.516,69.623,45.123z"/><text x="0" y="115" fill="#000000" font-size="5px" font-weight="bold" font-family="'Helvetica Neue', Helvetica, Arial-Unicode, Arial, Sans-serif">Created by Sherrinford</text><text x="0" y="120" fill="#000000" font-size="5px" font-weight="bold" font-family="'Helvetica Neue', Helvetica, Arial-Unicode, Arial, Sans-serif">from the Noun Project</text></svg>